<?xml version="1.0" encoding="UTF-8"?>
<svg id="Layer_1" xmlns="http://www.w3.org/2000/svg" version="1.1" viewBox="0 0 32 32">
  <!-- Generator: Adobe Illustrator 30.1.0, SVG Export Plug-In . SVG Version: 2.1.1 Build 136)  -->
  <defs>
    <style>
      .st0 {
        fill: #9b9b9b;
      }
    </style>
  </defs>
  <path class="st0" d="M4.5,10.18c0-.17.14-.34.34-.34h7.28c.19,0,.34.16.34.34v1.92c0,.17-.14.34-.34.34h-4.87v2.18h4.01c.17,0,.34.16.34.34v1.92c0,.19-.16.34-.34.34h-4.01v2.38h4.87c.19,0,.34.16.34.34v1.92c0,.17-.14.34-.34.34h-7.28c-.19,0-.34-.16-.34-.34v-11.66Z"/>
  <path class="st0" d="M13.36,10.26c-.07-.25.07-.42.32-.42h2.06c.14,0,.28.12.32.25l1.51,5.97h.07l2.73-6.19c.05-.1.16-.19.3-.19h.32c.16,0,.27.08.3.19l2.73,6.19h.07l1.51-5.97c.04-.12.17-.25.32-.25h2.06c.25,0,.39.17.32.42l-3.32,11.82c-.03.14-.17.25-.32.25h-.28c-.12,0-.25-.09-.3-.19l-3.22-7.2h-.05l-3.2,7.2c-.05.1-.17.19-.3.19h-.28c-.14,0-.28-.1-.32-.25l-3.34-11.82Z"/>
</svg>