<?xml version="1.0" encoding="UTF-8"?>
<svg id="Layer_1" xmlns="http://www.w3.org/2000/svg" version="1.1" viewBox="0 0 188.22 19.55">
  <!-- Generator: Adobe Illustrator 30.1.0, SVG Export Plug-In . SVG Version: 2.1.1 Build 136)  -->
  <defs>
    <style>
      .st0 {
        fill: #231f20;
      }
    </style>
  </defs>
  <path class="st0" d="M0,.79C0,.52.22.27.52.27h11.24c.3,0,.52.24.52.52v2.96c0,.27-.22.52-.52.52h-7.52v3.37h6.19c.27,0,.52.24.52.52v2.96c0,.3-.24.52-.52.52h-6.19v3.67h7.52c.3,0,.52.24.52.52v2.96c0,.27-.22.52-.52.52H.52c-.3,0-.52-.24-.52-.52V.79Z"/>
  <path class="st0" d="M14.43,18.57L22.93.3c.08-.16.27-.3.46-.3h.27c.19,0,.38.13.46.3l8.5,18.27c.16.35-.05.71-.46.71h-3.01c-.49,0-.71-.16-.95-.68l-.98-2.15h-7.38l-.98,2.17c-.13.33-.43.65-.98.65h-2.99c-.41,0-.62-.35-.46-.71ZM25.59,12.76l-2.06-4.48h-.03l-2.04,4.48h4.13Z"/>
  <path class="st0" d="M37.39.43c.03-.24.27-.43.49-.43h.44c.13,0,.38.11.46.27l6.3,11.73h.06L51.43.27c.08-.16.33-.27.46-.27h.43c.22,0,.46.19.49.43l3.07,18.25c.05.35-.19.6-.52.6h-3.21c-.24,0-.49-.22-.52-.43l-1.22-8.39h-.05l-4.56,8.8c-.08.16-.33.3-.46.3h-.49c-.16,0-.38-.14-.46-.3l-4.59-8.8h-.05l-1.2,8.39c-.03.22-.24.43-.52.43h-3.2c-.33,0-.57-.24-.52-.6L37.39.43Z"/>
  <path class="st0" d="M93.71.92c-.11-.38.11-.65.49-.65h3.18c.22,0,.43.19.49.38l2.33,9.21h.11L104.52.3c.08-.16.24-.3.46-.3h.49c.24,0,.41.13.46.3l4.21,9.56h.11l2.33-9.21c.06-.19.27-.38.49-.38h3.18c.38,0,.6.27.49.65l-5.13,18.25c-.05.22-.27.38-.49.38h-.43c-.19,0-.38-.14-.46-.3l-4.97-11.11h-.08l-4.94,11.11c-.08.16-.27.3-.46.3h-.43c-.22,0-.44-.16-.49-.38L93.71.92Z"/>
  <path class="st0" d="M127.6,0c5.43,0,9.77,4.37,9.77,9.8s-4.34,9.75-9.77,9.75-9.75-4.32-9.75-9.75S122.17,0,127.6,0ZM127.6,15.21c2.99,0,5.43-2.44,5.43-5.4s-2.44-5.46-5.43-5.46-5.4,2.47-5.4,5.46,2.44,5.4,5.4,5.4Z"/>
  <path class="st0" d="M140.17.79c0-.27.22-.52.52-.52h8.12c3.26,0,5.92,2.63,5.92,5.87,0,2.5-1.66,4.51-4.02,5.46l3.72,6.9c.19.35,0,.79-.46.79h-3.61c-.22,0-.38-.14-.44-.24l-3.61-7.2h-1.87v6.92c0,.27-.24.52-.52.52h-3.23c-.3,0-.52-.24-.52-.52V.79ZM148.45,8.39c1.11,0,2.06-1.03,2.06-2.17s-.95-2.06-2.06-2.06h-4.02v4.24h4.02Z"/>
  <path class="st0" d="M158.37.92c0-.35.27-.65.65-.65h3.18c.35,0,.65.3.65.65v7.14l6.03-7.52c.11-.14.35-.27.52-.27h3.42c.52,0,.79.6.49,1l-6.35,7.96,6.92,9.02c.3.41,0,1-.52,1h-3.75c-.19,0-.44-.11-.49-.19l-6.27-8.53v8.09c0,.35-.3.65-.65.65h-3.18c-.38,0-.65-.3-.65-.65V.92Z"/>
  <path class="st0" d="M175.57,16.7l1.28-2.25c.22-.35.73-.3.92-.16.11.05,2.06,1.49,3.86,1.49,1.09,0,1.87-.68,1.87-1.63,0-1.14-.95-2.01-2.8-2.74-2.33-.92-5.27-2.74-5.27-6,0-2.69,2.09-5.4,6.27-5.4,2.82,0,4.99,1.44,5.81,2.04.33.19.27.68.16.87l-1.38,2.09c-.19.3-.68.54-.92.35-.24-.13-2.23-1.63-3.88-1.63-.98,0-1.71.65-1.71,1.38,0,1,.81,1.77,2.96,2.63,2.12.84,5.49,2.5,5.49,6.19,0,2.8-2.42,5.62-6.41,5.62-3.53,0-5.49-1.47-6.11-2.09-.27-.27-.35-.38-.13-.76Z"/>
</svg>